<?xml version="1.0" encoding="UTF-8"?>
<svg xmlns="http://www.w3.org/2000/svg" xmlns:xlink="http://www.w3.org/1999/xlink" width="24px" height="24px" viewBox="0 0 24 24" version="1.1">
<g id="surface1">
<path style=" stroke:none;fill-rule:nonzero;fill:rgb(0%,0%,0%);fill-opacity:1;" d="M 21.617188 6 L 3.75 6 C 3.335938 6 3 5.664062 3 5.25 C 3 4.835938 3.335938 4.5 3.75 4.5 L 21.75 4.5 C 22.164062 4.5 22.5 4.164062 22.5 3.75 C 22.5 2.507812 21.492188 1.5 20.25 1.5 L 3 1.5 C 1.34375 1.5 0 2.84375 0 4.5 L 0 19.5 C 0 21.15625 1.34375 22.5 3 22.5 L 21.617188 22.5 C 22.933594 22.5 24 21.492188 24 20.25 L 24 8.25 C 24 7.007812 22.933594 6 21.617188 6 Z M 19.5 15.75 C 18.671875 15.75 18 15.078125 18 14.25 C 18 13.421875 18.671875 12.75 19.5 12.75 C 20.328125 12.75 21 13.421875 21 14.25 C 21 15.078125 20.328125 15.75 19.5 15.75 Z M 19.5 15.75 "/>
</g>
</svg>
